<svg xmlns="http://www.w3.org/2000/svg" viewBox="0 0 128 128"><rect width="128" height="128" rx="16" fill="#F1F4F8"/><g stroke="#3B4754" stroke-width="3" fill="#F5EFE6" stroke-linejoin="round"><path d="M61 43 30 28l5-10 29 21z"/><path d="M66 42l15-31 10 5-21 30z"/><path d="M67 49l31 15-5 10-29-21z"/><path d="M62 50 47 81l-10-5 21-30z"/></g><path d="M52 58h24l8 52H44z" fill="#C96A3B"/><path d="M48 58c2-10 8-16 16-16s14 6 16 16z" fill="#E4573D"/><circle cx="64" cy="46" r="7" fill="#3B4754"/><rect x="58" y="88" width="12" height="22" rx="5" fill="#6B4A2B"/></svg>
